<?xml version="1.0" standalone="no"?>
<!DOCTYPE svg PUBLIC "-//W3C//DTD SVG 20010904//EN"
 "http://www.w3.org/TR/2001/REC-SVG-20010904/DTD/svg10.dtd">
<svg version="1.0" xmlns="http://www.w3.org/2000/svg"
 width="310.000000pt" height="310.000000pt" viewBox="0 0 310.000000 310.000000"
 preserveAspectRatio="xMidYMid meet">
<metadata>
Created by potrace 1.11, written by Peter Selinger 2001-2013
</metadata>
<g transform="translate(0.000000,310.000000) scale(0.100000,-0.100000)"
fill="#000000" stroke="none">
<path d="M1370 3054 c-192 -23 -428 -106 -603 -210 -293 -176 -540 -482 -647
-802 -64 -191 -74 -258 -75 -487 0 -184 3 -223 23 -314 103 -460 400 -844 807
-1045 125 -61 218 -95 355 -128 84 -20 121 -22 320 -23 184 0 240 3 305 18
302 70 559 210 766 416 207 208 346 463 416 766 26 114 26 482 0 603 -62 289
-205 556 -406 760 -218 219 -467 355 -786 427 -68 16 -395 29 -475 19z m-78
-1061 l3 -258 240 0 240 0 3 258 2 257 188 -2 187 -3 0 -710 0 -710 -187 -3
-188 -2 -2 292 -3 293 -240 0 -240 0 -5 -290 -5 -290 -180 0 -180 0 -3 713 -2
712 185 0 185 0 2 -257z"/>
</g>
</svg>
